PathFileType	4	(X/Y/Z)	webcam_static.trc
DataRate	CameraRate	NumFrames	NumMarkers	Units	OrigDataRate	OrigDataStartFrame	OrigNumFrames
29.300983568096093	29.300983568096093	28	12	mm	29.300983568096093	162	1294
Frame#	Time	JOINT_RIGHT_SHOULDER			JOINT_LEFT_SHOULDER			JOINT_RIGHT_ELBOW			JOINT_LEFT_ELBOW			JOINT_LEFT_WRIST			JOINT_RIGHT_WRIST			JOINT_RIGHT_PINKY			JOINT_LEFT_PINKY			JOINT_RIGHT_INDEX			JOINT_LEFT_INDEX			JOINT_RIGHT_HIP			JOINT_LEFT_HIP
		X1	Y1	Z1	X2	Y2	Z2	X3	Y3	Z3	X4	Y4	Z4	X5	Y5	Z5	X6	Y6	Z6	X7	Y7	Z7	X8	Y8	Z8	X9	Y9	Z9	X10	Y10	Z10	X11	Y11	Z11	X12	Y12	Z12

162	1753709313.902997	179.754585	416.783094	159.767210	110.123016	418.371111	-170.885831	158.707067	154.324442	218.995452	77.270992	179.913431	-199.749470	180.397063	-23.055894	-297.886640	244.550288	-51.889140	325.857133	262.263894	-102.225788	358.287424	200.850070	-87.517507	-332.495481	296.587855	-108.070575	346.495658	240.087077	-94.100021	-317.315906	19.208746	4.491132	119.746536	-20.493275	-3.750650	-119.038656
163	1753709313.934630	179.460496	416.716188	159.785643	110.011265	418.367594	-170.755506	158.077821	154.351503	219.085202	77.102304	179.989487	-199.745923	180.206180	-23.122605	-297.858775	243.460670	-51.956497	325.903028	261.108398	-102.325186	358.305216	200.640053	-87.653093	-332.444698	295.404822	-108.168900	346.518368	239.865661	-94.272643	-317.237973	19.189719	4.502473	119.710937	-20.472636	-3.763201	-119.003199
164	1753709313.970289	179.269359	416.716158	159.801707	109.712079	418.430328	-170.618132	157.953456	154.343650	219.207972	76.691851	180.170238	-199.741960	180.112451	-23.132490	-297.798544	243.359804	-52.108776	325.960517	261.028826	-102.494158	358.401150	200.460017	-87.713875	-332.194954	295.313984	-108.400680	346.680880	239.749551	-94.381921	-317.062587	19.160260	4.518931	119.663537	-20.439819	-3.779716	-118.954524
165	1753709314.001147	179.086447	416.780531	159.838811	109.378524	418.613404	-170.378774	157.815278	154.594183	219.305843	76.457471	180.463359	-199.678421	180.163339	-23.059737	-297.228247	243.375748	-51.986795	325.981826	261.106968	-102.417953	358.302772	200.603813	-87.716244	-331.415832	295.465618	-108.290873	346.587181	239.906311	-94.377317	-316.255778	19.130224	4.517858	119.612403	-20.407766	-3.778890	-118.903697
166	1753709314.037404	179.041520	416.767627	159.939826	109.270252	418.658882	-170.242950	157.398045	154.635087	219.493240	76.099209	180.623502	-199.580327	179.688185	-23.115275	-297.091931	242.738485	-51.962435	326.086313	260.491043	-102.402285	358.364552	200.194493	-87.829083	-331.232816	294.703305	-108.269468	346.632957	239.528716	-94.582237	-316.067427	19.150507	4.521965	119.596362	-20.428745	-3.782939	-118.888989
167	1753709314.070442	178.697765	417.103320	160.035402	109.083682	418.755919	-170.058116	156.857073	155.681074	219.577372	75.890772	180.755630	-199.571580	179.684684	-23.118205	-296.747535	242.566541	-51.040977	326.026946	260.388613	-101.540610	358.021647	200.207740	-87.865531	-330.673605	294.679403	-107.302196	346.381158	239.539042	-94.598569	-315.518051	19.103518	4.512179	119.568504	-20.379389	-3.773937	-118.861541
168	1753709314.105448	177.871317	417.427897	160.184309	108.331427	418.917358	-169.884354	155.719265	156.237021	219.636992	74.988224	180.883199	-199.514553	179.140687	-23.171155	-296.614617	241.824865	-50.332550	326.071262	259.790033	-100.831039	358.040184	199.737936	-88.031150	-330.486864	294.153064	-106.560662	346.407503	239.111215	-94.747342	-315.317243	19.094707	4.511303	119.553156	-20.369971	-3.773206	-118.846916
169	1753709314.143141	177.356735	417.679667	160.492897	108.072437	419.061691	-169.602558	155.029967	156.860694	220.009431	74.744679	181.007609	-199.403614	178.998873	-23.168495	-296.383291	241.392553	-49.158324	326.355696	259.469479	-99.589117	358.137041	199.684754	-88.047907	-330.286324	293.892294	-105.047360	346.523821	239.038736	-94.757870	-315.074742	19.079043	4.490659	119.541101	-20.354409	-3.753324	-118.835099
170	1753709314.178837	177.265510	417.756706	160.647616	108.058020	419.099957	-169.478580	154.933006	157.081768	220.115840	74.736282	181.030646	-199.391976	178.972319	-23.373881	-296.393365	241.305634	-48.230108	326.379806	259.406090	-98.482609	358.127266	199.676365	-88.391274	-330.331057	293.809652	-103.708878	346.517652	239.029393	-95.081970	-315.094084	19.069791	4.462661	119.530618	-20.344913	-3.726057	-118.825056
171	1753709314.212468	177.280873	417.857140	160.741881	108.153842	419.149220	-169.443920	154.940516	157.360792	220.213547	74.760735	181.059286	-199.383259	179.024532	-23.444926	-296.402186	241.419986	-47.480468	326.426238	259.643704	-97.582839	358.134598	199.785441	-88.495694	-330.350697	293.994188	-102.701791	346.524179	239.139050	-95.185511	-315.122306	19.056624	4.450067	119.522586	-20.331549	-3.713559	-118.817657
172	1753709314.244951	176.354125	418.103278	161.006227	106.984645	419.371903	-169.281378	153.825715	157.783136	220.544219	73.239796	181.255460	-199.372411	177.599758	-23.448110	-296.348065	240.333006	-47.104787	326.541960	258.639514	-97.184293	358.216494	198.252380	-88.514753	-330.217630	292.904586	-102.315523	346.634686	237.723708	-95.200263	-314.998060	19.056899	4.438062	119.512387	-20.331008	-3.701756	-118.807547
173	1753709314.276355	176.000208	418.534875	161.301315	106.914163	419.533551	-169.227198	153.528810	158.239186	220.605567	73.206805	181.336433	-199.374899	177.584201	-23.442566	-296.429545	240.145117	-46.298288	326.564521	258.503824	-96.246317	358.220428	198.254913	-88.511072	-330.329388	292.790532	-101.337202	346.639782	237.720311	-95.153734	-315.125883	19.034369	4.391579	119.517371	-20.308148	-3.656009	-118.813366
174	1753709314.312834	176.022574	418.563664	161.386222	106.863298	419.662178	-169.198304	153.579563	158.310950	220.636725	73.170729	181.437105	-199.367285	177.584738	-23.431702	-296.414316	240.478829	-46.227992	326.652706	259.079903	-96.203044	358.240694	198.323607	-88.514827	-330.332488	293.401927	-101.286665	346.652985	237.789184	-95.141418	-315.129012	19.042019	4.347601	119.514652	-20.316435	-3.611898	-118.811518
175	1753709314.349006	175.342917	418.775648	161.413908	105.899982	419.960678	-169.165596	153.106913	158.604190	220.680505	72.240777	181.729555	-199.457660	176.858231	-23.329478	-296.705008	240.110219	-46.004768	326.716304	258.804351	-96.013866	358.316004	197.659940	-88.429786	-330.657333	293.050051	-101.140507	346.728951	237.135202	-95.042996	-315.491110	19.044051	4.338041	119.514011	-20.318326	-3.602142	-118.811496
176	1753709314.376418	173.687682	418.849647	161.536872	104.599513	420.256823	-169.088230	151.544869	158.749625	220.763505	71.199544	182.130784	-199.486017	175.921172	-23.164580	-296.711475	238.309070	-45.847721	326.739728	256.857365	-95.864072	358.325422	196.745500	-88.316381	-330.658823	290.924370	-100.967348	346.738219	236.189008	-94.907358	-315.480709	19.041069	4.331450	119.508706	-20.315023	-3.596102	-118.806556
177	1753709314.412867	173.693180	419.227421	161.730111	105.119362	420.412868	-169.058502	151.449814	159.128979	220.767260	71.709014	182.229623	-199.634731	176.188797	-23.149872	-296.867996	238.198280	-44.992402	326.759458	256.738663	-94.964042	358.329028	197.255477	-88.253684	-330.887586	290.860116	-99.896275	346.747279	236.624435	-94.780497	-315.623134	19.020502	4.313122	119.562656	-20.293871	-3.577340	-118.862711
178	1753709314.452957	173.326164	419.244438	162.129179	104.881234	420.494258	-168.906331	150.843114	159.219041	220.867366	71.605720	182.314456	-199.628457	175.979003	-23.083096	-296.815366	237.500414	-44.857338	326.809585	255.959004	-94.778053	358.336508	197.103038	-88.155515	-330.867440	290.165335	-99.675715	346.756130	236.432970	-94.621956	-315.580010	19.019431	4.267175	119.564615	-20.292986	-3.533270	-118.865512
179	1753709314.481635	173.030183	419.328630	162.521034	104.830615	420.523912	-168.704256	150.593072	159.416437	221.251875	71.606524	182.345539	-199.690983	176.145270	-23.089947	-296.817571	237.468824	-44.659786	326.828510	255.961835	-94.585873	358.213902	197.364286	-88.177361	-330.867976	290.173620	-99.409275	346.666515	236.651525	-94.617903	-315.574318	18.994024	4.210711	119.561628	-20.267962	-3.479180	-118.863158
180	1753709314.522431	173.030674	419.650137	162.882775	104.997799	420.632482	-168.566689	150.605857	159.697637	221.317500	71.983390	182.414711	-199.923158	176.881626	-22.889562	-297.102392	237.561569	-44.257108	326.868594	256.193459	-94.202019	358.216196	198.402956	-87.943591	-331.215143	290.553391	-98.979175	346.681118	237.547398	-94.162017	-315.834433	18.968666	4.128171	119.586796	-20.243920	-3.398218	-118.890114
181	1753709314.550629	172.871307	420.075536	163.414642	104.997694	420.953989	-168.192834	150.280356	160.021380	221.479475	71.986333	182.745263	-199.915960	176.935673	-22.445245	-296.964526	237.387478	-44.125441	326.887429	256.085277	-94.086953	358.163774	198.519483	-87.423667	-331.040651	290.513724	-98.832719	346.657693	237.613305	-93.373895	-315.615386	18.894892	4.085289	119.590864	-20.171080	-3.355885	-118.894845
182	1753709314.584284	172.373936	420.095682	163.531289	104.570605	421.010196	-168.158695	149.972945	160.044521	221.505463	71.811944	182.770178	-200.003952	176.935703	-22.396237	-296.977699	237.320647	-44.142909	326.902896	256.051719	-94.108507	358.164370	198.523074	-87.387323	-331.042856	290.490806	-98.881967	346.659690	237.619027	-93.300961	-315.614074	18.888324	4.054188	119.592257	-20.164518	-3.326194	-118.896842
183	1753709314.617316	172.367856	420.232713	163.897783	104.601115	421.051592	-167.801619	150.028735	160.294697	221.563771	71.913704	182.806164	-199.997753	177.130684	-22.258371	-296.912253	237.600952	-43.974284	326.937169	256.543607	-94.019979	358.159572	198.799148	-87.264925	-330.958784	291.033834	-98.793194	346.662879	237.863258	-93.070723	-315.495431	18.877529	3.996328	119.593672	-20.154521	-3.269276	-118.898861
184	1753709314.657377	172.355413	420.253575	164.262742	104.630858	421.078771	-167.381674	150.028944	160.317346	221.634403	72.100922	182.833195	-199.887872	177.366912	-22.215925	-296.525002	237.620220	-43.934762	326.914132	256.596416	-93.992211	357.919544	199.274033	-87.194793	-330.604106	291.095734	-98.733068	346.373051	238.214716	-92.905000	-314.941168	18.869102	3.920289	119.601294	-20.146707	-3.193964	-118.907563
185	1753709314.688766	172.402456	420.242757	164.373726	104.826473	420.917213	-167.354614	150.081038	160.289377	221.661910	72.444335	182.628259	-200.003475	177.813023	-22.306152	-296.533525	237.736046	-44.144452	326.798201	256.742477	-94.233207	357.601851	199.840710	-87.253347	-330.606490	291.265339	-98.960154	346.013308	238.657326	-92.902400	-314.929008	18.859655	3.886717	119.607113	-20.137792	-3.161687	-118.913881
186	1753709314.722408	171.476007	420.320779	164.522424	104.164027	421.063155	-167.325035	149.113774	160.428286	221.771374	71.791947	182.730988	-200.004339	177.005023	-22.268971	-296.415210	236.675382	-44.030320	326.796114	255.489707	-94.108619	357.597739	198.862284	-87.234937	-330.366015	289.869636	-98.866418	346.006721	237.753928	-92.876509	-314.644575	18.861523	3.873187	119.604073	-20.139620	-3.148630	-118.911311
187	1753709314.754711	171.407342	420.336962	164.558411	103.983477	421.130270	-167.296723	149.198890	160.435081	221.792504	71.763285	182.749033	-200.029701	177.013516	-22.204954	-296.411663	236.965403	-44.046491	326.757967	255.873173	-94.116211	357.551843	198.871955	-87.133378	-330.361396	290.170610	-98.903798	345.944852	237.764835	-92.748508	-314.641148	18.861864	3.858841	119.606093	-20.139784	-3.134689	-118.913502
188	1753709314.788929	171.459973	420.407832	164.645284	103.972584	421.165377	-167.191312	149.222106	160.461843	221.799940	71.707107	182.763547	-199.974149	176.872820	-22.185666	-296.409220	236.973196	-44.050392	326.767385	255.886853	-94.147556	357.545525	198.795885	-87.066732	-330.386490	290.198207	-98.943301	345.932215	237.694710	-92.621580	-314.659834	18.901225	3.819580	119.621202	-20.179637	-3.094907	-118.929297
189	1753709314.825162	171.469688	420.342833	164.750934	103.949271	421.090394	-167.165339	149.387643	160.378605	221.963406	71.750477	182.609677	-199.984089	176.885754	-22.178294	-296.430051	237.263635	-44.387866	326.802343	256.159961	-94.495848	357.542694	198.815420	-87.047055	-330.463886	290.510714	-99.373847	345.911294	237.701669	-92.552640	-314.717591	18.923847	3.781572	119.625151	-20.204023	-3.058674	-118.933849
